<svg xmlns="http://www.w3.org/2000/svg" viewBox="0 0 512 512" width="512" height="512">
  <rect width="512" height="512" rx="96" fill="#1A1A2E"/>
  <circle cx="256" cy="256" r="188" fill="none" stroke="#F5A623" stroke-width="14"/>
  <circle cx="256" cy="256" r="158" fill="none" stroke="#F5A623" stroke-width="4" opacity="0.35"/>
  <path d="M232 88 Q240 60 256 76 Q268 50 280 80 Q296 104 278 122 Q268 134 256 128 Q240 134 230 122 Q214 104 232 88Z" fill="#F5A623"/>
  <path d="M244 100 Q250 82 256 92 Q264 78 268 96 Q276 110 264 118 Q256 122 248 118 Q238 110 244 100Z" fill="#1A1A2E" opacity="0.4"/>
  <text x="256" y="248" font-family="Georgia, 'Times New Roman', serif" font-size="120" font-weight="700" fill="#F5A623" text-anchor="middle" dominant-baseline="auto">QR</text>
  <text x="256" y="318" font-family="Georgia, 'Times New Roman', serif" font-size="54" font-weight="400" fill="#F5A623" text-anchor="middle" letter-spacing="8" opacity="0.92">rasoi</text>
  <circle cx="218" cy="390" r="5" fill="#F5A623" opacity="0.55"/>
  <circle cx="256" cy="398" r="5" fill="#F5A623" opacity="0.55"/>
  <circle cx="294" cy="390" r="5" fill="#F5A623" opacity="0.55"/>
</svg>